<svg xmlns="http://www.w3.org/2000/svg" viewBox="0 0 1398.3 1478.8">
  <g id="Layer_2" data-name="Layer 2">
    <g id="Layer_1-2" data-name="Layer 1">
      <path d="M862,284.9c25.4,3.8,0-62.5,0-62.5-11.1-163-67-202.1-67-202.1-42.4-45.7-102.7,0-102.7,0-24.5,21.3-71.1,9-71.1,9s-56.9-31.8-101.3,0c0,0-36,24.3-50.2,82,0,0-17.6,109.7-15.1,139l-.3,71.2s70.6-104.7,94-160.8c0,0,60.3-118.9,18.5-129.8,0,0-17.6-11.7-35.2,2.6,0,0,7.5-23.5,58.6-7.6,0,0,76.7,36.9,110.8,0,0,0,55.8-38.5,87.6,2.5,0,0-31.8-18.4-47.7,1.7,0,0-25.9,32.7,18.4,47.7,0,0,49.4,15.1,56.1,57.8,0,0,7.6,28.5-13.4,15.9,0,0-42.7-33.5-66.1,20.1C735.9,171.6,696,260.1,862,284.9Z" fill="#ff5571"/>
      <path d="M440.3,411.9l7.6,17.6s-20.9-15.1-20.1,3.3c0,0,11.7,78.7,20.1,94.6,0,0,17.6,52.8,42.7,38.5l16.7,77S514,717.5,689,766c0,0,54.4,20.9,142.3-77.8,0,0,58.6-109.7,58.6-145.7,0,0,21.7-155.5,13-167.4L446.2,397.6Z" fill="#020202"/>
      <path d="M862.5,253.6s177,21.3,188.2,38c0,0,0,77-244.5,96L498.1,407.7s-73.7,4.5-158.5-17.9l-58-23.4s-19-10.1,59.1-30.2L439,303.9l-80.4,41.3s-84.9,35.7,74.8,2.2l62.5-16.6S795,277.1,843,306.1c0,0,114.3,9.9,151.9-6.7,0,0,25.6-13.4-22.4-21.2Z" fill="#ff5571"/>
      <path d="M361.7,798.7,257,858.9l-58.6,67.9,28.5-67.9s-73.7,24.3-73.7,41.1L123,1035.6l-23.4,50.2v154.1s-15.1,138.9-35.2,155.7l20.1-298.5L108,940.2S37.6,1049,30.9,1184.6c0,0-36.8,224.4-30.1,278s90.4-57,90.4-57,20.1-31.8,46.9,8.4c0,0,41.9,43.5,42.7-40.2,0,0,27.6-110.5,47.7-78.7,0,0,62,120.6,88.8,82.1,0,0,16.7-60.3,44.4-1.7,0,0,81.2,77,101.3,36.8l324.8,61.4S603.2,1042.3,501.5,995.4c0,0-110.5,172.5-120.6,224.4,0,0-69.8-157.9-63.6-187.6Z" fill="#02b2b4"/>
      <path d="M493.1,698.2,361.7,798.7S324,863.1,321.5,948.5c0,0-11.8,60.3-19.3,71.2l68.7-55.3s82-50.2,101.3-32.6c0,0-14.3-49.4-9.2-72.9,0,0,11.7-70.3,18.4-80.3l-74.5,92.1s-44.4,37.6-9.2-28.5c0,0,60.2-94,66.9-95.2l-11.7-5.3Z" fill="#092265"/>
      <path d="M528.3,698.2l-35.2,20.9s-22.9,81-30.1,139.8c0,0-10.7,93.8,38.5,136.5l227.6,349.9,58.7,128.4L900,966.9l15.6-94.8S871,965.8,843,975.9l-29,25.6L741.5,1342,576.8,902.3,529.4,741.5Z" fill="#092265"/>
      <path d="M873.3,704.1l333.1,147.3L1116,926.8,972,879.9s-33.5-11.7-28.5,20.1l-38.6,26.8,10.7-118.4Z" fill="#092265"/>
      <path d="M1206.4,851.4s182.5,280.8,191.4,470.5c0,0,4.5,118.6-15.6,155.3,0,0-51.3,3.5-44.6,0s33.4-81.6,33.4-81.6l-68.7,69.2s36.2-213.2,0-299.7l-45.1-120s63.5,225.5,45.1,308.1l-49.6,125.6-11.1-56.4s37-135.1,31.3-163l-53.7,142.9-12.8-212.1L1150,1398.9s-13.4-74.7-22.3-58l-31.3,94.9-18.9-86s-20.6-10-37.6,35.7l-28.3,88.2-50.2,3.5s215.8-246.8,218.4-312.1l14.9,17.3S1247.1,949.1,1206.4,851.4Z" fill="#092265"/>
      <path d="M660,825.2s51.6,11.1,69.2,3.6L751,843.9s-23.5,77-16.8,104.6c0,0,44.4,101.3,36.8,147.4l.9,103.3L741.5,1342,635.4,1058.7s10-64.1,31-80.9l10-30.1-52.2-76.2Z" fill="#ff5571"/>
      <path d="M551.7,747s44.6,62.5,108.3,78.2c0,0-1.1,16.7-25.7,34.6,0,0-17.9,16.7-22.3,36.8,0,0-8.6,22.3-26.1,30.2l-28.6-76.7s49.8,27.2,31.6-3.7l-21.2-35s-8.9-14.9,20.1,1.9C587.8,813.3,552.8,763,551.7,747Z" fill="#02b2b4"/>
      <path d="M729.2,828.8s111.6-70,118.3-116.6l15.6,29.3L839.7,936.8l-67.8-85.4L751,843.9Z" fill="#020010"/>
    </g>
  </g>
</svg>
