<svg xmlns="http://www.w3.org/2000/svg" viewBox="0 0 1138.2 1263.4">
  <g id="Layer_2" data-name="Layer 2">
    <g id="Layer_1-2" data-name="Layer 1">
      <path d="M213.2,645.2l-13.9-49.7s-5.1-16.7,2.7-18.4,18.5,22.3,18.5,22.3l29,72.6,16.7,35.2-2.8,34.6L259,756.3l.5,49.1h6.7v47.4h13.4l68.1-137.9,3.9-19.5-8.9-34,2.8-15.6-26.2-24.6-38.6,8.9s-33.4,2.3-36.2-21.2c0,0-1.9-16-6-15.6,0,0-7.1-3.7-6.3-11.2,0,0-5.6-10-4.9-13.4l-1.1-13.4-13.4-2.6s-8.5-1.8,2.6-18.2l9.3-30.1-7.9-25.5,13.4-33.5s-5-53.6,5.9-63.6l38.5-31L0,0V761.9L192.6,1003,175.8,820.5l20.1-7.6,2.5-35.1L175.8,761l-10.9-61.9,15.9-22.6,17.6-7.6,2.5-13.4Z" fill="#092265"/>
      <polygon points="1138.2 1263.4 823.5 920 682.8 885.4 572.3 742.5 435 1027.2 384.8 1003 351.3 1074 507 1263.4 1138.2 1263.4" fill="#092265"/>
    </g>
  </g>
</svg>
