<svg xmlns="http://www.w3.org/2000/svg" viewBox="0 0 1138.2 1263.4">
  <g id="Layer_2" data-name="Layer 2">
    <g id="Layer_1-2" data-name="Layer 1">
      <path d="M925,645.2l14-49.7s5-16.7-2.8-18.4-18.4,22.3-18.4,22.3l-29,72.6L872,707.2l2.8,34.6,4.5,14.5-.6,49.1H872v47.4H858.6L790.5,714.9l-3.9-19.5,8.9-34-2.7-15.6L819,621.2l38.5,8.9s33.5,2.3,36.3-21.2c0,0,1.8-16,5.9-15.6,0,0,7.1-3.7,6.4-11.2,0,0,5.5-10,4.8-13.4l1.1-13.4,13.4-2.6s8.6-1.8-2.6-18.2l-9.3-30.1,7.9-25.5L908,445.4s5-53.6-5.8-63.6l-38.6-31L1138.2,0V761.9L945.7,1003l16.7-182.5-20.1-7.6-2.5-35.1L962.4,761l10.9-61.9-15.9-22.6-17.6-7.6-2.5-13.4Z" fill="#092265"/>
      <polygon points="0 1263.4 314.8 920 455.4 885.4 566 742.5 703.3 1027.2 753.5 1003 787 1074 631.3 1263.4 0 1263.4" fill="#092265"/>
    </g>
  </g>
</svg>
